<?xml version="1.0" encoding="utf-8"?>
<!-- Generator: Adobe Illustrator 15.1.0, SVG Export Plug-In . SVG Version: 6.00 Build 0)  -->
<!DOCTYPE svg PUBLIC "-//W3C//DTD SVG 1.1//EN" "http://www.w3.org/Graphics/SVG/1.1/DTD/svg11.dtd">
<svg version="1.1" id="Layer_7" xmlns="http://www.w3.org/2000/svg" xmlns:xlink="http://www.w3.org/1999/xlink" x="0px" y="0px"
	 width="124.667px" height="124.667px" viewBox="3.481 1.816 124.667 124.667" enable-background="new 3.481 1.816 124.667 124.667"
	 xml:space="preserve">
<path fill="#FFFFFF" d="M65.815,126.483c-34.372,0-62.334-27.963-62.334-62.334c0-34.37,27.963-62.333,62.334-62.333
	c34.369,0,62.332,27.963,62.332,62.333C128.147,98.521,100.187,126.483,65.815,126.483z M65.815,5.816
	c-32.166,0-58.334,26.168-58.334,58.333s26.169,58.334,58.334,58.334c32.164,0,58.332-26.169,58.332-58.334
	S97.979,5.816,65.815,5.816z"/>
<path fill="#FFFFFF" d="M60.304,98.577c-1.185,0-2.332-0.469-3.182-1.318L37.757,77.893c-1.758-1.757-1.758-4.605,0-6.363
	c1.756-1.758,4.607-1.758,6.363,0l15.108,15.108l27.509-50.563c1.188-2.185,3.921-2.99,6.104-1.804
	c2.184,1.188,2.99,3.921,1.803,6.104L64.257,96.228c-0.679,1.247-1.905,2.102-3.31,2.305C60.732,98.562,60.518,98.577,60.304,98.577
	z"/>
</svg>
